<mxfile host="app.diagrams.net" modified="2021-03-04T07:44:48.658Z" agent="5.0 (Windows NT 10.0; Win64; x64) AppleWebKit/537.36 (KHTML, like Gecko) Chrome/87.0.4280.88 Safari/537.36" etag="WEouViZwy-1Rl6WLjLec" version="14.4.4" type="github">
  <diagram name="Page-1" id="e7e014a7-5840-1c2e-5031-d8a46d1fe8dd">
    <mxGraphModel dx="1422" dy="762" grid="1" gridSize="10" guides="1" tooltips="1" connect="1" arrows="1" fold="1" page="1" pageScale="1" pageWidth="1169" pageHeight="826" background="#ffffff" math="0" shadow="0">
      <root>
        <mxCell id="0" />
        <mxCell id="1" parent="0" />
        <mxCell id="2" value="获取数据" style="swimlane;whiteSpace=wrap" parent="1" vertex="1">
          <mxGeometry x="164.5" y="128" width="280" height="570" as="geometry" />
        </mxCell>
        <mxCell id="5" value="" style="ellipse;shape=startState;fillColor=#000000;strokeColor=#ff0000;" parent="2" vertex="1">
          <mxGeometry x="100" y="40" width="30" height="30" as="geometry" />
        </mxCell>
        <mxCell id="6" value="" style="edgeStyle=elbowEdgeStyle;elbow=horizontal;verticalAlign=bottom;endArrow=open;endSize=8;strokeColor=#FF0000;endFill=1;rounded=0" parent="2" source="5" target="7" edge="1">
          <mxGeometry x="100" y="40" as="geometry">
            <mxPoint x="115" y="110" as="targetPoint" />
          </mxGeometry>
        </mxCell>
        <mxCell id="7" value="获取全部特征工程" style="" parent="2" vertex="1">
          <mxGeometry x="60" y="110" width="110" height="50" as="geometry" />
        </mxCell>
        <mxCell id="8" value="获取全部位置位移数字" style="" parent="2" vertex="1">
          <mxGeometry x="40" y="220" width="150" height="50" as="geometry" />
        </mxCell>
        <mxCell id="9" value="" style="endArrow=open;strokeColor=#FF0000;endFill=1;rounded=0" parent="2" source="7" target="8" edge="1">
          <mxGeometry relative="1" as="geometry" />
        </mxCell>
        <mxCell id="10" value="组合出全部位置位移组合" style="" parent="2" vertex="1">
          <mxGeometry x="15.5" y="322" width="240" height="50" as="geometry" />
        </mxCell>
        <mxCell id="11" value="" style="endArrow=open;strokeColor=#FF0000;endFill=1;rounded=0;entryX=0.421;entryY=0;entryDx=0;entryDy=0;entryPerimeter=0;" parent="2" source="8" target="10" edge="1">
          <mxGeometry relative="1" as="geometry" />
        </mxCell>
        <mxCell id="3" value="快速验证" style="swimlane;whiteSpace=wrap" parent="1" vertex="1">
          <mxGeometry x="444.5" y="128" width="280" height="570" as="geometry" />
        </mxCell>
        <mxCell id="18" value="组合每计算出10000个，&#xa;则启动计算线程进行计算，&#xa;启动10个线程每个线程对1000个组合进行计算" style="" parent="3" vertex="1">
          <mxGeometry x="5.5" y="300" width="250" height="80" as="geometry" />
        </mxCell>
        <mxCell id="WCdaSI7G34Xe56yTyV2f-41" value="" style="endArrow=open;strokeColor=#FF0000;endFill=1;rounded=0" edge="1" parent="3">
          <mxGeometry relative="1" as="geometry">
            <mxPoint x="255.5" y="337.4454545454546" as="sourcePoint" />
            <mxPoint x="315.5" y="337" as="targetPoint" />
            <Array as="points">
              <mxPoint x="265.5" y="336.5" />
              <mxPoint x="315.5" y="337" />
            </Array>
          </mxGeometry>
        </mxCell>
        <mxCell id="4" value="存储并更新结果" style="swimlane;whiteSpace=wrap" parent="1" vertex="1">
          <mxGeometry x="724.5" y="128" width="280" height="570" as="geometry" />
        </mxCell>
        <mxCell id="33" value="存储结果，并排序，&#xa;" style="" parent="4" vertex="1">
          <mxGeometry x="40" y="300" width="210" height="80" as="geometry" />
        </mxCell>
        <mxCell id="38" value="" style="ellipse;shape=endState;fillColor=#000000;strokeColor=#ff0000" parent="4" vertex="1">
          <mxGeometry x="130" y="500" width="30" height="30" as="geometry" />
        </mxCell>
        <mxCell id="39" value="" style="endArrow=open;strokeColor=#FF0000;endFill=1;rounded=0" parent="4" source="33" target="38" edge="1">
          <mxGeometry relative="1" as="geometry" />
        </mxCell>
        <mxCell id="WCdaSI7G34Xe56yTyV2f-43" value="" style="endArrow=open;strokeColor=#FF0000;endFill=1;rounded=0;exitX=0;exitY=0.5;exitDx=0;exitDy=0;" edge="1" parent="4" source="WCdaSI7G34Xe56yTyV2f-44">
          <mxGeometry relative="1" as="geometry">
            <mxPoint x="145.5" y="222.9454545454546" as="sourcePoint" />
            <mxPoint x="-144.5" y="302" as="targetPoint" />
            <Array as="points">
              <mxPoint x="-144.5" y="201" />
              <mxPoint x="-144.5" y="298" />
            </Array>
          </mxGeometry>
        </mxCell>
        <mxCell id="WCdaSI7G34Xe56yTyV2f-44" value="判断是否存在未计算的组合，&lt;br style=&quot;padding: 0px ; margin: 0px&quot;&gt;有则继续计算" style="rhombus;whiteSpace=wrap;html=1;" vertex="1" parent="4">
          <mxGeometry x="60" y="140" width="200" height="120" as="geometry" />
        </mxCell>
        <mxCell id="WCdaSI7G34Xe56yTyV2f-45" value="" style="endArrow=open;strokeColor=#FF0000;endFill=1;rounded=0;entryX=0.5;entryY=1;entryDx=0;entryDy=0;exitX=0.571;exitY=0.025;exitDx=0;exitDy=0;exitPerimeter=0;" edge="1" parent="4" source="33" target="WCdaSI7G34Xe56yTyV2f-44">
          <mxGeometry relative="1" as="geometry">
            <mxPoint x="185.5" y="292" as="sourcePoint" />
            <mxPoint x="95.5" y="284.5" as="targetPoint" />
            <Array as="points" />
          </mxGeometry>
        </mxCell>
        <mxCell id="20" value="" style="endArrow=open;strokeColor=#FF0000;endFill=1;rounded=0" parent="1" source="10" target="18" edge="1">
          <mxGeometry relative="1" as="geometry" />
        </mxCell>
      </root>
    </mxGraphModel>
  </diagram>
</mxfile>
